<svg width="1280" height="640" viewBox="0 0 1280 640" fill="none" xmlns="http://www.w3.org/2000/svg">
<rect width="1280" height="640" fill="#33BE63"/>
<path d="M430.953 398.641C433.122 396.125 435.866 394.867 439.184 394.867C445.491 394.867 448.69 398.467 448.781 405.668V425H442.137V405.914C442.137 403.872 441.69 402.432 440.797 401.594C439.922 400.737 438.628 400.309 436.914 400.309C434.253 400.309 432.266 401.493 430.953 403.863V425H424.309V383H430.953V398.641ZM468.551 425.547C464.34 425.547 460.922 424.225 458.297 421.582C455.69 418.921 454.387 415.384 454.387 410.973V410.152C454.387 407.199 454.952 404.565 456.082 402.25C457.23 399.917 458.835 398.103 460.895 396.809C462.954 395.514 465.251 394.867 467.785 394.867C471.814 394.867 474.922 396.152 477.109 398.723C479.315 401.293 480.418 404.93 480.418 409.633V412.312H461.086C461.286 414.755 462.098 416.688 463.52 418.109C464.96 419.531 466.764 420.242 468.934 420.242C471.978 420.242 474.457 419.012 476.371 416.551L479.953 419.969C478.768 421.737 477.182 423.113 475.195 424.098C473.227 425.064 471.012 425.547 468.551 425.547ZM467.758 400.199C465.935 400.199 464.458 400.837 463.328 402.113C462.216 403.389 461.505 405.167 461.195 407.445H473.855V406.953C473.71 404.729 473.117 403.052 472.078 401.922C471.039 400.773 469.599 400.199 467.758 400.199ZM496.223 405.148L501.855 395.414H509.238L500.188 409.988L509.539 425H502.211L496.305 414.883L490.426 425H483.043L492.395 409.988L483.371 395.414H490.699L496.223 405.148ZM526.656 410.754H512.301V405.395H526.656V410.754ZM544.293 420.242C545.952 420.242 547.328 419.759 548.422 418.793C549.516 417.827 550.099 416.633 550.172 415.211H556.434C556.361 417.052 555.786 418.775 554.711 420.379C553.635 421.965 552.177 423.223 550.336 424.152C548.495 425.082 546.508 425.547 544.375 425.547C540.237 425.547 536.956 424.207 534.531 421.527C532.107 418.848 530.895 415.147 530.895 410.426V409.742C530.895 405.24 532.098 401.639 534.504 398.941C536.91 396.225 540.191 394.867 544.348 394.867C547.866 394.867 550.728 395.897 552.934 397.957C555.158 399.999 556.324 402.688 556.434 406.023H550.172C550.099 404.328 549.516 402.934 548.422 401.84C547.346 400.746 545.97 400.199 544.293 400.199C542.142 400.199 540.483 400.983 539.316 402.551C538.15 404.1 537.557 406.461 537.539 409.633V410.699C537.539 413.908 538.113 416.305 539.262 417.891C540.428 419.458 542.105 420.242 544.293 420.242ZM560.207 409.934C560.207 407.035 560.781 404.428 561.93 402.113C563.078 399.78 564.691 397.993 566.77 396.754C568.848 395.496 571.236 394.867 573.934 394.867C577.926 394.867 581.161 396.152 583.641 398.723C586.138 401.293 587.487 404.702 587.688 408.949L587.715 410.508C587.715 413.424 587.15 416.031 586.02 418.328C584.908 420.625 583.303 422.402 581.207 423.66C579.129 424.918 576.723 425.547 573.988 425.547C569.814 425.547 566.469 424.161 563.953 421.391C561.456 418.602 560.207 414.892 560.207 410.262V409.934ZM566.852 410.508C566.852 413.552 567.48 415.94 568.738 417.672C569.996 419.385 571.746 420.242 573.988 420.242C576.23 420.242 577.971 419.367 579.211 417.617C580.469 415.867 581.098 413.306 581.098 409.934C581.098 406.944 580.451 404.574 579.156 402.824C577.88 401.074 576.139 400.199 573.934 400.199C571.764 400.199 570.042 401.065 568.766 402.797C567.49 404.51 566.852 407.081 566.852 410.508ZM600.402 425H593.758V383H600.402V425ZM606.418 409.934C606.418 407.035 606.992 404.428 608.141 402.113C609.289 399.78 610.902 397.993 612.98 396.754C615.059 395.496 617.447 394.867 620.145 394.867C624.137 394.867 627.372 396.152 629.852 398.723C632.349 401.293 633.698 404.702 633.898 408.949L633.926 410.508C633.926 413.424 633.361 416.031 632.23 418.328C631.118 420.625 629.514 422.402 627.418 423.66C625.34 424.918 622.934 425.547 620.199 425.547C616.025 425.547 612.68 424.161 610.164 421.391C607.667 418.602 606.418 414.892 606.418 410.262V409.934ZM613.062 410.508C613.062 413.552 613.691 415.94 614.949 417.672C616.207 419.385 617.957 420.242 620.199 420.242C622.441 420.242 624.182 419.367 625.422 417.617C626.68 415.867 627.309 413.306 627.309 409.934C627.309 406.944 626.661 404.574 625.367 402.824C624.091 401.074 622.35 400.199 620.145 400.199C617.975 400.199 616.253 401.065 614.977 402.797C613.701 404.51 613.062 407.081 613.062 410.508ZM655.035 401.484C654.16 401.339 653.258 401.266 652.328 401.266C649.284 401.266 647.233 402.432 646.176 404.766V425H639.531V395.414H645.875L646.039 398.723C647.643 396.152 649.867 394.867 652.711 394.867C653.659 394.867 654.443 394.995 655.062 395.25L655.035 401.484ZM672.125 410.754H657.77V405.395H672.125V410.754ZM676.363 409.934C676.363 407.035 676.938 404.428 678.086 402.113C679.234 399.78 680.848 397.993 682.926 396.754C685.004 395.496 687.392 394.867 690.09 394.867C694.082 394.867 697.318 396.152 699.797 398.723C702.294 401.293 703.643 404.702 703.844 408.949L703.871 410.508C703.871 413.424 703.306 416.031 702.176 418.328C701.064 420.625 699.46 422.402 697.363 423.66C695.285 424.918 692.879 425.547 690.145 425.547C685.97 425.547 682.625 424.161 680.109 421.391C677.612 418.602 676.363 414.892 676.363 410.262V409.934ZM683.008 410.508C683.008 413.552 683.637 415.94 684.895 417.672C686.152 419.385 687.902 420.242 690.145 420.242C692.387 420.242 694.128 419.367 695.367 417.617C696.625 415.867 697.254 413.306 697.254 409.934C697.254 406.944 696.607 404.574 695.312 402.824C694.036 401.074 692.296 400.199 690.09 400.199C687.921 400.199 686.198 401.065 684.922 402.797C683.646 404.51 683.008 407.081 683.008 410.508ZM735.398 410.508C735.398 415.083 734.359 418.738 732.281 421.473C730.203 424.189 727.414 425.547 723.914 425.547C720.669 425.547 718.072 424.48 716.121 422.348V436.375H709.477V395.414H715.602L715.875 398.422C717.826 396.052 720.478 394.867 723.832 394.867C727.441 394.867 730.267 396.216 732.309 398.914C734.368 401.594 735.398 405.322 735.398 410.098V410.508ZM728.781 409.934C728.781 406.98 728.189 404.638 727.004 402.906C725.837 401.174 724.16 400.309 721.973 400.309C719.257 400.309 717.306 401.43 716.121 403.672V416.797C717.324 419.094 719.293 420.242 722.027 420.242C724.142 420.242 725.792 419.395 726.977 417.699C728.18 415.986 728.781 413.397 728.781 409.934ZM758.723 425C758.431 424.435 758.176 423.514 757.957 422.238C755.842 424.444 753.254 425.547 750.191 425.547C747.22 425.547 744.796 424.699 742.918 423.004C741.04 421.309 740.102 419.212 740.102 416.715C740.102 413.561 741.268 411.146 743.602 409.469C745.953 407.773 749.307 406.926 753.664 406.926H757.738V404.984C757.738 403.453 757.31 402.232 756.453 401.32C755.596 400.391 754.293 399.926 752.543 399.926C751.03 399.926 749.79 400.309 748.824 401.074C747.858 401.822 747.375 402.779 747.375 403.945H740.73C740.73 402.323 741.268 400.81 742.344 399.406C743.419 397.984 744.878 396.872 746.719 396.07C748.578 395.268 750.647 394.867 752.926 394.867C756.389 394.867 759.151 395.742 761.211 397.492C763.271 399.224 764.328 401.667 764.383 404.82V418.164C764.383 420.826 764.757 422.949 765.504 424.535V425H758.723ZM751.422 420.215C752.734 420.215 753.965 419.896 755.113 419.258C756.28 418.62 757.155 417.763 757.738 416.688V411.109H754.156C751.695 411.109 749.845 411.538 748.605 412.395C747.366 413.251 746.746 414.464 746.746 416.031C746.746 417.307 747.165 418.328 748.004 419.094C748.861 419.841 750 420.215 751.422 420.215ZM783.496 420.242C785.155 420.242 786.531 419.759 787.625 418.793C788.719 417.827 789.302 416.633 789.375 415.211H795.637C795.564 417.052 794.99 418.775 793.914 420.379C792.839 421.965 791.38 423.223 789.539 424.152C787.698 425.082 785.711 425.547 783.578 425.547C779.44 425.547 776.159 424.207 773.734 421.527C771.31 418.848 770.098 415.147 770.098 410.426V409.742C770.098 405.24 771.301 401.639 773.707 398.941C776.113 396.225 779.395 394.867 783.551 394.867C787.069 394.867 789.931 395.897 792.137 397.957C794.361 399.999 795.527 402.688 795.637 406.023H789.375C789.302 404.328 788.719 402.934 787.625 401.84C786.549 400.746 785.173 400.199 783.496 400.199C781.345 400.199 779.686 400.983 778.52 402.551C777.353 404.1 776.76 406.461 776.742 409.633V410.699C776.742 413.908 777.316 416.305 778.465 417.891C779.632 419.458 781.309 420.242 783.496 420.242ZM807.723 425H801.078V395.414H807.723V425ZM800.668 387.73C800.668 386.71 800.987 385.862 801.625 385.188C802.281 384.513 803.211 384.176 804.414 384.176C805.617 384.176 806.547 384.513 807.203 385.188C807.859 385.862 808.188 386.71 808.188 387.73C808.188 388.733 807.859 389.572 807.203 390.246C806.547 390.902 805.617 391.23 804.414 391.23C803.211 391.23 802.281 390.902 801.625 390.246C800.987 389.572 800.668 388.733 800.668 387.73ZM823.309 388.223V395.414H828.531V400.336H823.309V416.852C823.309 417.982 823.527 418.802 823.965 419.312C824.421 419.805 825.223 420.051 826.371 420.051C827.137 420.051 827.911 419.96 828.695 419.777V424.918C827.182 425.337 825.724 425.547 824.32 425.547C819.216 425.547 816.664 422.73 816.664 417.098V400.336H811.797V395.414H816.664V388.223H823.309ZM843.98 415.484L849.996 395.414H857.078L845.32 429.484C843.516 434.461 840.453 436.949 836.133 436.949C835.167 436.949 834.1 436.785 832.934 436.457V431.316L834.191 431.398C835.868 431.398 837.126 431.089 837.965 430.469C838.822 429.867 839.496 428.846 839.988 427.406L840.945 424.863L830.555 395.414H837.719L843.98 415.484Z" fill="white"/>
<circle cx="377.5" cy="264.5" r="55.5" fill="white" fill-opacity="0.2"/>
<circle cx="508.5" cy="264.5" r="55.5" fill="white" fill-opacity="0.4"/>
<circle cx="639.5" cy="264.5" r="55.5" fill="white" fill-opacity="0.6"/>
<circle cx="770.5" cy="264.5" r="55.5" fill="white" fill-opacity="0.8"/>
<circle cx="901.5" cy="264.5" r="55.5" fill="white"/>
</svg>
